# xmcd
#
# Track frame offsets: 
#        150
#        17742
#        36437
#
# Disc length: 738 seconds
#
# Revision: 0
# Processed by: cddbd v1.5.2PL0 Copyright (c) Steve Scherf et al.
# Submitted via: ExactAudioCopy v1.0b1
#
DISCID=1e02e003
DTITLE=Barbara Streisand - Woman in Love
DYEAR=1991
DGENRE=Blues
TTITLE0=01-Woman in Love
TTITLE1=02-Run Wild
TTITLE2=03-The Way We Were
EXTD=
EXTT0=
EXTT1=
EXTT2=
PLAYORDER=
